%TF.GenerationSoftware,KiCad,Pcbnew,9.0.5*%
%TF.CreationDate,2025-11-08T17:52:40-08:00*%
%TF.ProjectId,urban-power-dist-v2,75726261-6e2d-4706-9f77-65722d646973,rev?*%
%TF.SameCoordinates,Original*%
%TF.FileFunction,Soldermask,Bot*%
%TF.FilePolarity,Negative*%
%FSLAX46Y46*%
G04 Gerber Fmt 4.6, Leading zero omitted, Abs format (unit mm)*
G04 Created by KiCad (PCBNEW 9.0.5) date 2025-11-08 17:52:40*
%MOMM*%
%LPD*%
G01*
G04 APERTURE LIST*
%ADD10R,1.700000X1.700000*%
%ADD11C,1.700000*%
%ADD12C,2.780000*%
%ADD13C,3.200000*%
%ADD14C,3.300000*%
%ADD15C,2.550000*%
G04 APERTURE END LIST*
D10*
%TO.C,J5*%
X127040000Y-104980000D03*
D11*
X124500000Y-104980000D03*
X121960000Y-104980000D03*
%TD*%
D12*
%TO.C,F2*%
X157600001Y-85000000D03*
X157600001Y-88400000D03*
X167520001Y-85000000D03*
X167520001Y-88400000D03*
%TD*%
D13*
%TO.C,H3*%
X203000000Y-57000000D03*
%TD*%
D12*
%TO.C,F3*%
X175000000Y-107600001D03*
X171600000Y-107600001D03*
X175000000Y-117520001D03*
X171600000Y-117520001D03*
%TD*%
%TO.C,F1*%
X135000000Y-102400000D03*
X138400000Y-102400000D03*
X135000000Y-92480000D03*
X138400000Y-92480000D03*
%TD*%
D14*
%TO.C,J3*%
X183011251Y-86085000D03*
X183011251Y-68915000D03*
D15*
X183011251Y-80200000D03*
X183011251Y-74800000D03*
%TD*%
D13*
%TO.C,H2*%
X107000000Y-57000000D03*
%TD*%
%TO.C,H1*%
X107000000Y-153000000D03*
%TD*%
D14*
%TO.C,J4*%
X173915000Y-133011251D03*
X191085000Y-133011251D03*
D15*
X179800000Y-133011251D03*
X185200000Y-133011251D03*
%TD*%
D13*
%TO.C,H4*%
X203000000Y-153000000D03*
%TD*%
D10*
%TO.C,J7*%
X182959999Y-105020001D03*
D11*
X185499999Y-105020001D03*
X188039999Y-105020001D03*
%TD*%
D14*
%TO.C,J1*%
X127000000Y-123830000D03*
X127000000Y-141000000D03*
D15*
X127000000Y-129715000D03*
X127000000Y-135115000D03*
%TD*%
D14*
%TO.C,J2*%
X136085000Y-76988750D03*
X118915000Y-76988750D03*
D15*
X130200000Y-76988750D03*
X124800000Y-76988750D03*
%TD*%
D10*
%TO.C,J6*%
X155020001Y-77040001D03*
D11*
X155020001Y-74500001D03*
X155020001Y-71960001D03*
%TD*%
M02*
