%TF.GenerationSoftware,KiCad,Pcbnew,9.0.5*%
%TF.CreationDate,2025-11-08T17:52:39-08:00*%
%TF.ProjectId,urban-power-dist-v2,75726261-6e2d-4706-9f77-65722d646973,rev?*%
%TF.SameCoordinates,Original*%
%TF.FileFunction,Copper,L2,Bot*%
%TF.FilePolarity,Positive*%
%FSLAX46Y46*%
G04 Gerber Fmt 4.6, Leading zero omitted, Abs format (unit mm)*
G04 Created by KiCad (PCBNEW 9.0.5) date 2025-11-08 17:52:39*
%MOMM*%
%LPD*%
G01*
G04 APERTURE LIST*
%TA.AperFunction,ComponentPad*%
%ADD10R,1.700000X1.700000*%
%TD*%
%TA.AperFunction,ComponentPad*%
%ADD11C,1.700000*%
%TD*%
%TA.AperFunction,ComponentPad*%
%ADD12C,2.780000*%
%TD*%
%TA.AperFunction,ComponentPad*%
%ADD13C,2.550000*%
%TD*%
%TA.AperFunction,ViaPad*%
%ADD14C,0.600000*%
%TD*%
G04 APERTURE END LIST*
D10*
%TO.P,J5,1,Pin_1*%
%TO.N,Net-(J5-Pin_1)*%
X127040000Y-104980000D03*
D11*
%TO.P,J5,2,Pin_2*%
%TO.N,Net-(J2-Pin_2)*%
X124500000Y-104980000D03*
%TO.P,J5,3,Pin_3*%
%TO.N,GND*%
X121960000Y-104980000D03*
%TD*%
D12*
%TO.P,F2,1*%
%TO.N,+12V*%
X157600001Y-85000000D03*
X157600001Y-88400000D03*
%TO.P,F2,2*%
%TO.N,Net-(J6-Pin_1)*%
X167520001Y-85000000D03*
X167520001Y-88400000D03*
%TD*%
%TO.P,F3,1*%
%TO.N,+12V*%
X175000000Y-107600001D03*
X171600000Y-107600001D03*
%TO.P,F3,2*%
%TO.N,Net-(J7-Pin_1)*%
X175000000Y-117520001D03*
X171600000Y-117520001D03*
%TD*%
%TO.P,F1,1*%
%TO.N,+12V*%
X135000000Y-102400000D03*
X138400000Y-102400000D03*
%TO.P,F1,2*%
%TO.N,Net-(J5-Pin_1)*%
X135000000Y-92480000D03*
X138400000Y-92480000D03*
%TD*%
D13*
%TO.P,J3,1,Pin_1*%
%TO.N,GND*%
X183011251Y-80200000D03*
%TO.P,J3,2,Pin_2*%
%TO.N,Net-(J3-Pin_2)*%
X183011251Y-74800000D03*
%TD*%
%TO.P,J4,1,Pin_1*%
%TO.N,GND*%
X179800000Y-133011251D03*
%TO.P,J4,2,Pin_2*%
%TO.N,Net-(J4-Pin_2)*%
X185200000Y-133011251D03*
%TD*%
D10*
%TO.P,J7,1,Pin_1*%
%TO.N,Net-(J7-Pin_1)*%
X182959999Y-105020001D03*
D11*
%TO.P,J7,2,Pin_2*%
%TO.N,Net-(J4-Pin_2)*%
X185499999Y-105020001D03*
%TO.P,J7,3,Pin_3*%
%TO.N,GND*%
X188039999Y-105020001D03*
%TD*%
D13*
%TO.P,J1,1,Pin_1*%
%TO.N,GND*%
X127000000Y-129715000D03*
%TO.P,J1,2,Pin_2*%
%TO.N,+12V*%
X127000000Y-135115000D03*
%TD*%
%TO.P,J2,1,Pin_1*%
%TO.N,GND*%
X130200000Y-76988750D03*
%TO.P,J2,2,Pin_2*%
%TO.N,Net-(J2-Pin_2)*%
X124800000Y-76988750D03*
%TD*%
D10*
%TO.P,J6,1,Pin_1*%
%TO.N,Net-(J6-Pin_1)*%
X155020001Y-77040001D03*
D11*
%TO.P,J6,2,Pin_2*%
%TO.N,Net-(J3-Pin_2)*%
X155020001Y-74500001D03*
%TO.P,J6,3,Pin_3*%
%TO.N,GND*%
X155020001Y-71960001D03*
%TD*%
D14*
%TO.N,GND*%
X189415001Y-110473750D03*
X120584999Y-99526251D03*
X160473750Y-70584999D03*
%TD*%
%TA.AperFunction,Conductor*%
%TO.N,GND*%
G36*
X195943039Y-50520185D02*
G01*
X195988794Y-50572989D01*
X196000000Y-50624500D01*
X196000000Y-64000000D01*
X209375500Y-64000000D01*
X209442539Y-64019685D01*
X209488294Y-64072489D01*
X209499500Y-64124000D01*
X209499500Y-145876000D01*
X209479815Y-145943039D01*
X209427011Y-145988794D01*
X209375500Y-146000000D01*
X196000000Y-146000000D01*
X196000000Y-159375500D01*
X195980315Y-159442539D01*
X195927511Y-159488294D01*
X195876000Y-159499500D01*
X114124000Y-159499500D01*
X114056961Y-159479815D01*
X114011206Y-159427011D01*
X114000000Y-159375500D01*
X114000000Y-146000000D01*
X100624500Y-146000000D01*
X100557461Y-145980315D01*
X100511706Y-145927511D01*
X100500500Y-145876000D01*
X100500500Y-140875441D01*
X125099500Y-140875441D01*
X125099500Y-141124558D01*
X125099501Y-141124575D01*
X125132017Y-141371561D01*
X125196498Y-141612207D01*
X125291830Y-141842361D01*
X125291837Y-141842376D01*
X125416400Y-142058126D01*
X125568060Y-142255774D01*
X125568066Y-142255781D01*
X125744218Y-142431933D01*
X125744225Y-142431939D01*
X125941873Y-142583599D01*
X126157623Y-142708162D01*
X126157638Y-142708169D01*
X126256825Y-142749253D01*
X126387793Y-142803502D01*
X126628435Y-142867982D01*
X126875435Y-142900500D01*
X126875442Y-142900500D01*
X127124558Y-142900500D01*
X127124565Y-142900500D01*
X127371565Y-142867982D01*
X127612207Y-142803502D01*
X127842373Y-142708164D01*
X128058127Y-142583599D01*
X128255776Y-142431938D01*
X128431938Y-142255776D01*
X128583599Y-142058127D01*
X128708164Y-141842373D01*
X128803502Y-141612207D01*
X128867982Y-141371565D01*
X128900500Y-141124565D01*
X128900500Y-140875435D01*
X128867982Y-140628435D01*
X128803502Y-140387793D01*
X128708164Y-140157627D01*
X128583599Y-139941873D01*
X128431938Y-139744224D01*
X128431933Y-139744218D01*
X128255781Y-139568066D01*
X128255774Y-139568060D01*
X128058126Y-139416400D01*
X127842376Y-139291837D01*
X127842361Y-139291830D01*
X127612207Y-139196498D01*
X127371561Y-139132017D01*
X127124575Y-139099501D01*
X127124570Y-139099500D01*
X127124565Y-139099500D01*
X126875435Y-139099500D01*
X126875429Y-139099500D01*
X126875424Y-139099501D01*
X126628438Y-139132017D01*
X126387792Y-139196498D01*
X126157638Y-139291830D01*
X126157623Y-139291837D01*
X125941873Y-139416400D01*
X125744225Y-139568060D01*
X125744218Y-139568066D01*
X125568066Y-139744218D01*
X125568060Y-139744225D01*
X125416400Y-139941873D01*
X125291837Y-140157623D01*
X125291830Y-140157638D01*
X125196498Y-140387792D01*
X125132017Y-140628438D01*
X125099501Y-140875424D01*
X125099500Y-140875441D01*
X100500500Y-140875441D01*
X100500500Y-134998634D01*
X125224500Y-134998634D01*
X125224500Y-135231365D01*
X125224501Y-135231382D01*
X125254878Y-135462122D01*
X125315120Y-135686947D01*
X125404180Y-135901960D01*
X125404188Y-135901976D01*
X125520553Y-136103524D01*
X125520564Y-136103540D01*
X125662242Y-136288179D01*
X125662248Y-136288186D01*
X125826813Y-136452751D01*
X125826819Y-136452756D01*
X126011468Y-136594442D01*
X126011475Y-136594446D01*
X126213023Y-136710811D01*
X126213039Y-136710819D01*
X126428052Y-136799879D01*
X126428054Y-136799879D01*
X126428060Y-136799882D01*
X126652874Y-136860121D01*
X126883628Y-136890500D01*
X126883635Y-136890500D01*
X127116365Y-136890500D01*
X127116372Y-136890500D01*
X127347126Y-136860121D01*
X127571940Y-136799882D01*
X127629953Y-136775852D01*
X127786960Y-136710819D01*
X127786963Y-136710817D01*
X127786969Y-136710815D01*
X127988532Y-136594442D01*
X128173181Y-136452756D01*
X128337756Y-136288181D01*
X128479442Y-136103532D01*
X128595815Y-135901969D01*
X128684882Y-135686940D01*
X128745121Y-135462126D01*
X128775500Y-135231372D01*
X128775500Y-134998628D01*
X128745121Y-134767874D01*
X128684882Y-134543060D01*
X128663193Y-134490697D01*
X128595819Y-134328039D01*
X128595811Y-134328023D01*
X128479446Y-134126475D01*
X128479442Y-134126468D01*
X128435635Y-134069377D01*
X128337757Y-133941820D01*
X128337751Y-133941813D01*
X128173186Y-133777248D01*
X128173179Y-133777242D01*
X127988540Y-133635564D01*
X127988538Y-133635562D01*
X127988532Y-133635558D01*
X127988527Y-133635555D01*
X127988524Y-133635553D01*
X127786976Y-133519188D01*
X127786960Y-133519180D01*
X127571947Y-133430120D01*
X127347122Y-133369878D01*
X127116382Y-133339501D01*
X127116377Y-133339500D01*
X127116372Y-133339500D01*
X126883628Y-133339500D01*
X126883622Y-133339500D01*
X126883617Y-133339501D01*
X126652877Y-133369878D01*
X126428052Y-133430120D01*
X126213039Y-133519180D01*
X126213023Y-133519188D01*
X126011475Y-133635553D01*
X126011459Y-133635564D01*
X125826820Y-133777242D01*
X125826813Y-133777248D01*
X125662248Y-133941813D01*
X125662242Y-133941820D01*
X125520564Y-134126459D01*
X125520553Y-134126475D01*
X125404188Y-134328023D01*
X125404180Y-134328039D01*
X125315120Y-134543052D01*
X125254878Y-134767877D01*
X125224501Y-134998617D01*
X125224500Y-134998634D01*
X100500500Y-134998634D01*
X100500500Y-132886692D01*
X172014500Y-132886692D01*
X172014500Y-133135809D01*
X172014501Y-133135826D01*
X172047017Y-133382812D01*
X172111498Y-133623458D01*
X172206830Y-133853612D01*
X172206837Y-133853627D01*
X172331400Y-134069377D01*
X172483060Y-134267025D01*
X172483066Y-134267032D01*
X172659218Y-134443184D01*
X172659225Y-134443190D01*
X172856873Y-134594850D01*
X173072623Y-134719413D01*
X173072638Y-134719420D01*
X173161849Y-134756372D01*
X173302793Y-134814753D01*
X173543435Y-134879233D01*
X173790435Y-134911751D01*
X173790442Y-134911751D01*
X174039558Y-134911751D01*
X174039565Y-134911751D01*
X174286565Y-134879233D01*
X174527207Y-134814753D01*
X174757373Y-134719415D01*
X174973127Y-134594850D01*
X175170776Y-134443189D01*
X175346938Y-134267027D01*
X175498599Y-134069378D01*
X175623164Y-133853624D01*
X175718502Y-133623458D01*
X175782982Y-133382816D01*
X175815500Y-133135816D01*
X175815500Y-132894885D01*
X183424500Y-132894885D01*
X183424500Y-133127616D01*
X183424501Y-133127633D01*
X183452393Y-133339501D01*
X183454879Y-133358377D01*
X183461427Y-133382816D01*
X183515120Y-133583198D01*
X183604180Y-133798211D01*
X183604188Y-133798227D01*
X183720553Y-133999775D01*
X183720564Y-133999791D01*
X183862242Y-134184430D01*
X183862248Y-134184437D01*
X184026813Y-134349002D01*
X184026820Y-134349008D01*
X184149561Y-134443190D01*
X184211468Y-134490693D01*
X184211475Y-134490697D01*
X184413023Y-134607062D01*
X184413039Y-134607070D01*
X184628052Y-134696130D01*
X184628054Y-134696130D01*
X184628060Y-134696133D01*
X184852874Y-134756372D01*
X185083628Y-134786751D01*
X185083635Y-134786751D01*
X185316365Y-134786751D01*
X185316372Y-134786751D01*
X185547126Y-134756372D01*
X185771940Y-134696133D01*
X185829953Y-134672103D01*
X185986960Y-134607070D01*
X185986963Y-134607068D01*
X185986969Y-134607066D01*
X186188532Y-134490693D01*
X186373181Y-134349007D01*
X186537756Y-134184432D01*
X186679442Y-133999783D01*
X186795815Y-133798220D01*
X186804504Y-133777244D01*
X186884879Y-133583198D01*
X186884878Y-133583198D01*
X186884882Y-133583191D01*
X186945121Y-133358377D01*
X186975500Y-133127623D01*
X186975500Y-132894879D01*
X186974422Y-132886692D01*
X189184500Y-132886692D01*
X189184500Y-133135809D01*
X189184501Y-133135826D01*
X189217017Y-133382812D01*
X189281498Y-133623458D01*
X189376830Y-133853612D01*
X189376837Y-133853627D01*
X189501400Y-134069377D01*
X189653060Y-134267025D01*
X189653066Y-134267032D01*
X189829218Y-134443184D01*
X189829225Y-134443190D01*
X190026873Y-134594850D01*
X190242623Y-134719413D01*
X190242638Y-134719420D01*
X190331849Y-134756372D01*
X190472793Y-134814753D01*
X190713435Y-134879233D01*
X190960435Y-134911751D01*
X190960442Y-134911751D01*
X191209558Y-134911751D01*
X191209565Y-134911751D01*
X191456565Y-134879233D01*
X191697207Y-134814753D01*
X191927373Y-134719415D01*
X192143127Y-134594850D01*
X192340776Y-134443189D01*
X192516938Y-134267027D01*
X192668599Y-134069378D01*
X192793164Y-133853624D01*
X192888502Y-133623458D01*
X192952982Y-133382816D01*
X192985500Y-133135816D01*
X192985500Y-132886686D01*
X192952982Y-132639686D01*
X192888502Y-132399044D01*
X192834253Y-132268076D01*
X192793169Y-132168889D01*
X192793162Y-132168874D01*
X192668599Y-131953124D01*
X192516939Y-131755476D01*
X192516933Y-131755469D01*
X192340781Y-131579317D01*
X192340774Y-131579311D01*
X192143126Y-131427651D01*
X191927376Y-131303088D01*
X191927361Y-131303081D01*
X191697207Y-131207749D01*
X191456561Y-131143268D01*
X191209575Y-131110752D01*
X191209570Y-131110751D01*
X191209565Y-131110751D01*
X190960435Y-131110751D01*
X190960429Y-131110751D01*
X190960424Y-131110752D01*
X190713438Y-131143268D01*
X190472792Y-131207749D01*
X190242638Y-131303081D01*
X190242623Y-131303088D01*
X190026873Y-131427651D01*
X189829225Y-131579311D01*
X189829218Y-131579317D01*
X189653066Y-131755469D01*
X189653060Y-131755476D01*
X189501400Y-131953124D01*
X189376837Y-132168874D01*
X189376830Y-132168889D01*
X189281498Y-132399043D01*
X189217017Y-132639689D01*
X189184501Y-132886675D01*
X189184500Y-132886692D01*
X186974422Y-132886692D01*
X186945121Y-132664125D01*
X186884882Y-132439311D01*
X186868203Y-132399043D01*
X186795819Y-132224290D01*
X186795811Y-132224274D01*
X186679446Y-132022726D01*
X186679442Y-132022719D01*
X186537756Y-131838070D01*
X186537751Y-131838064D01*
X186373186Y-131673499D01*
X186373179Y-131673493D01*
X186188540Y-131531815D01*
X186188538Y-131531813D01*
X186188532Y-131531809D01*
X186188527Y-131531806D01*
X186188524Y-131531804D01*
X185986976Y-131415439D01*
X185986960Y-131415431D01*
X185771947Y-131326371D01*
X185685054Y-131303088D01*
X185547126Y-131266130D01*
X185547125Y-131266129D01*
X185547122Y-131266129D01*
X185316382Y-131235752D01*
X185316377Y-131235751D01*
X185316372Y-131235751D01*
X185083628Y-131235751D01*
X185083622Y-131235751D01*
X185083617Y-131235752D01*
X184852877Y-131266129D01*
X184628052Y-131326371D01*
X184413039Y-131415431D01*
X184413023Y-131415439D01*
X184211475Y-131531804D01*
X184211459Y-131531815D01*
X184026820Y-131673493D01*
X184026813Y-131673499D01*
X183862248Y-131838064D01*
X183862242Y-131838071D01*
X183720564Y-132022710D01*
X183720553Y-132022726D01*
X183604188Y-132224274D01*
X183604180Y-132224290D01*
X183515120Y-132439303D01*
X183454878Y-132664128D01*
X183424501Y-132894868D01*
X183424500Y-132894885D01*
X175815500Y-132894885D01*
X175815500Y-132886686D01*
X175782982Y-132639686D01*
X175718502Y-132399044D01*
X175664253Y-132268076D01*
X175623169Y-132168889D01*
X175623162Y-132168874D01*
X175498599Y-131953124D01*
X175346939Y-131755476D01*
X175346933Y-131755469D01*
X175170781Y-131579317D01*
X175170774Y-131579311D01*
X174973126Y-131427651D01*
X174757376Y-131303088D01*
X174757361Y-131303081D01*
X174527207Y-131207749D01*
X174286561Y-131143268D01*
X174039575Y-131110752D01*
X174039570Y-131110751D01*
X174039565Y-131110751D01*
X173790435Y-131110751D01*
X173790429Y-131110751D01*
X173790424Y-131110752D01*
X173543438Y-131143268D01*
X173302792Y-131207749D01*
X173072638Y-131303081D01*
X173072623Y-131303088D01*
X172856873Y-131427651D01*
X172659225Y-131579311D01*
X172659218Y-131579317D01*
X172483066Y-131755469D01*
X172483060Y-131755476D01*
X172331400Y-131953124D01*
X172206837Y-132168874D01*
X172206830Y-132168889D01*
X172111498Y-132399043D01*
X172047017Y-132639689D01*
X172014501Y-132886675D01*
X172014500Y-132886692D01*
X100500500Y-132886692D01*
X100500500Y-123705441D01*
X125099500Y-123705441D01*
X125099500Y-123954558D01*
X125099501Y-123954575D01*
X125132017Y-124201561D01*
X125196498Y-124442207D01*
X125291830Y-124672361D01*
X125291837Y-124672376D01*
X125416400Y-124888126D01*
X125568060Y-125085774D01*
X125568066Y-125085781D01*
X125744218Y-125261933D01*
X125744225Y-125261939D01*
X125941873Y-125413599D01*
X126157623Y-125538162D01*
X126157638Y-125538169D01*
X126256825Y-125579253D01*
X126387793Y-125633502D01*
X126628435Y-125697982D01*
X126875435Y-125730500D01*
X126875442Y-125730500D01*
X127124558Y-125730500D01*
X127124565Y-125730500D01*
X127371565Y-125697982D01*
X127612207Y-125633502D01*
X127842373Y-125538164D01*
X128058127Y-125413599D01*
X128255776Y-125261938D01*
X128431938Y-125085776D01*
X128583599Y-124888127D01*
X128708164Y-124672373D01*
X128803502Y-124442207D01*
X128867982Y-124201565D01*
X128900500Y-123954565D01*
X128900500Y-123705435D01*
X128867982Y-123458435D01*
X128803502Y-123217793D01*
X128708164Y-122987627D01*
X128583599Y-122771873D01*
X128431938Y-122574224D01*
X128431933Y-122574218D01*
X128255781Y-122398066D01*
X128255774Y-122398060D01*
X128058126Y-122246400D01*
X127842376Y-122121837D01*
X127842361Y-122121830D01*
X127612207Y-122026498D01*
X127371561Y-121962017D01*
X127124575Y-121929501D01*
X127124570Y-121929500D01*
X127124565Y-121929500D01*
X126875435Y-121929500D01*
X126875429Y-121929500D01*
X126875424Y-121929501D01*
X126628438Y-121962017D01*
X126387792Y-122026498D01*
X126157638Y-122121830D01*
X126157623Y-122121837D01*
X125941873Y-122246400D01*
X125744225Y-122398060D01*
X125744218Y-122398066D01*
X125568066Y-122574218D01*
X125568060Y-122574225D01*
X125416400Y-122771873D01*
X125291837Y-122987623D01*
X125291830Y-122987638D01*
X125196498Y-123217792D01*
X125132017Y-123458438D01*
X125099501Y-123705424D01*
X125099500Y-123705441D01*
X100500500Y-123705441D01*
X100500500Y-117396097D01*
X169709500Y-117396097D01*
X169709500Y-117643904D01*
X169709501Y-117643920D01*
X169741846Y-117889607D01*
X169805990Y-118128993D01*
X169900819Y-118357932D01*
X169900827Y-118357949D01*
X170024729Y-118572552D01*
X170024740Y-118572568D01*
X170175595Y-118769167D01*
X170175601Y-118769174D01*
X170350826Y-118944399D01*
X170350832Y-118944404D01*
X170547441Y-119095267D01*
X170547448Y-119095271D01*
X170762051Y-119219173D01*
X170762056Y-119219175D01*
X170762059Y-119219177D01*
X170762063Y-119219178D01*
X170762068Y-119219181D01*
X170991007Y-119314010D01*
X170991009Y-119314010D01*
X170991015Y-119314013D01*
X171230390Y-119378154D01*
X171476090Y-119410501D01*
X171476097Y-119410501D01*
X171723903Y-119410501D01*
X171723910Y-119410501D01*
X171969610Y-119378154D01*
X172208985Y-119314013D01*
X172437941Y-119219177D01*
X172652559Y-119095267D01*
X172849168Y-118944404D01*
X173024403Y-118769169D01*
X173175266Y-118572560D01*
X173192613Y-118542513D01*
X173243180Y-118494298D01*
X173311787Y-118481075D01*
X173376652Y-118507043D01*
X173407386Y-118542513D01*
X173424734Y-118572560D01*
X173424739Y-118572566D01*
X173424740Y-118572568D01*
X173575595Y-118769167D01*
X173575601Y-118769174D01*
X173750826Y-118944399D01*
X173750832Y-118944404D01*
X173947441Y-119095267D01*
X173947448Y-119095271D01*
X174162051Y-119219173D01*
X174162056Y-119219175D01*
X174162059Y-119219177D01*
X174162063Y-119219178D01*
X174162068Y-119219181D01*
X174391007Y-119314010D01*
X174391009Y-119314010D01*
X174391015Y-119314013D01*
X174630390Y-119378154D01*
X174876090Y-119410501D01*
X174876097Y-119410501D01*
X175123903Y-119410501D01*
X175123910Y-119410501D01*
X175369610Y-119378154D01*
X175608985Y-119314013D01*
X175837941Y-119219177D01*
X176052559Y-119095267D01*
X176249168Y-118944404D01*
X176424403Y-118769169D01*
X176575266Y-118572560D01*
X176699176Y-118357942D01*
X176794012Y-118128986D01*
X176858153Y-117889611D01*
X176890500Y-117643911D01*
X176890500Y-117396091D01*
X176858153Y-117150391D01*
X176794012Y-116911016D01*
X176699176Y-116682060D01*
X176699174Y-116682057D01*
X176699172Y-116682052D01*
X176575270Y-116467449D01*
X176575266Y-116467442D01*
X176424403Y-116270833D01*
X176424398Y-116270827D01*
X176249173Y-116095602D01*
X176249166Y-116095596D01*
X176052567Y-115944741D01*
X176052565Y-115944739D01*
X176052559Y-115944735D01*
X176052554Y-115944732D01*
X176052551Y-115944730D01*
X175837948Y-115820828D01*
X175837931Y-115820820D01*
X175608992Y-115725991D01*
X175369606Y-115661847D01*
X175123919Y-115629502D01*
X175123916Y-115629501D01*
X175123910Y-115629501D01*
X174876090Y-115629501D01*
X174876084Y-115629501D01*
X174876080Y-115629502D01*
X174630393Y-115661847D01*
X174391007Y-115725991D01*
X174162068Y-115820820D01*
X174162051Y-115820828D01*
X173947448Y-115944730D01*
X173947432Y-115944741D01*
X173750833Y-116095596D01*
X173750826Y-116095602D01*
X173575601Y-116270827D01*
X173575595Y-116270834D01*
X173424740Y-116467433D01*
X173424726Y-116467454D01*
X173407386Y-116497488D01*
X173356819Y-116545703D01*
X173288212Y-116558925D01*
X173223347Y-116532957D01*
X173192614Y-116497488D01*
X173175273Y-116467454D01*
X173175270Y-116467449D01*
X173175266Y-116467442D01*
X173024403Y-116270833D01*
X173024398Y-116270827D01*
X172849173Y-116095602D01*
X172849166Y-116095596D01*
X172652567Y-115944741D01*
X172652565Y-115944739D01*
X172652559Y-115944735D01*
X172652554Y-115944732D01*
X172652551Y-115944730D01*
X172437948Y-115820828D01*
X172437931Y-115820820D01*
X172208992Y-115725991D01*
X171969606Y-115661847D01*
X171723919Y-115629502D01*
X171723916Y-115629501D01*
X171723910Y-115629501D01*
X171476090Y-115629501D01*
X171476084Y-115629501D01*
X171476080Y-115629502D01*
X171230393Y-115661847D01*
X170991007Y-115725991D01*
X170762068Y-115820820D01*
X170762051Y-115820828D01*
X170547448Y-115944730D01*
X170547432Y-115944741D01*
X170350833Y-116095596D01*
X170350826Y-116095602D01*
X170175601Y-116270827D01*
X170175595Y-116270834D01*
X170024740Y-116467433D01*
X170024729Y-116467449D01*
X169900827Y-116682052D01*
X169900819Y-116682069D01*
X169805990Y-116911008D01*
X169741846Y-117150394D01*
X169709501Y-117396081D01*
X169709500Y-117396097D01*
X100500500Y-117396097D01*
X100500500Y-107476097D01*
X169709500Y-107476097D01*
X169709500Y-107723904D01*
X169709501Y-107723920D01*
X169741846Y-107969607D01*
X169805990Y-108208993D01*
X169900819Y-108437932D01*
X169900827Y-108437949D01*
X170024729Y-108652552D01*
X170024740Y-108652568D01*
X170175595Y-108849167D01*
X170175601Y-108849174D01*
X170350826Y-109024399D01*
X170350832Y-109024404D01*
X170547441Y-109175267D01*
X170547448Y-109175271D01*
X170762051Y-109299173D01*
X170762056Y-109299175D01*
X170762059Y-109299177D01*
X170762063Y-109299178D01*
X170762068Y-109299181D01*
X170991007Y-109394010D01*
X170991009Y-109394010D01*
X170991015Y-109394013D01*
X171230390Y-109458154D01*
X171476090Y-109490501D01*
X171476097Y-109490501D01*
X171723903Y-109490501D01*
X171723910Y-109490501D01*
X171969610Y-109458154D01*
X172208985Y-109394013D01*
X172437941Y-109299177D01*
X172652559Y-109175267D01*
X172849168Y-109024404D01*
X173024403Y-108849169D01*
X173175266Y-108652560D01*
X173192613Y-108622513D01*
X173243180Y-108574298D01*
X173311787Y-108561075D01*
X173376652Y-108587043D01*
X173407386Y-108622513D01*
X173424734Y-108652560D01*
X173424739Y-108652566D01*
X173424740Y-108652568D01*
X173575595Y-108849167D01*
X173575601Y-108849174D01*
X173750826Y-109024399D01*
X173750832Y-109024404D01*
X173947441Y-109175267D01*
X173947448Y-109175271D01*
X174162051Y-109299173D01*
X174162056Y-109299175D01*
X174162059Y-109299177D01*
X174162063Y-109299178D01*
X174162068Y-109299181D01*
X174391007Y-109394010D01*
X174391009Y-109394010D01*
X174391015Y-109394013D01*
X174630390Y-109458154D01*
X174876090Y-109490501D01*
X174876097Y-109490501D01*
X175123903Y-109490501D01*
X175123910Y-109490501D01*
X175369610Y-109458154D01*
X175608985Y-109394013D01*
X175837941Y-109299177D01*
X176052559Y-109175267D01*
X176249168Y-109024404D01*
X176424403Y-108849169D01*
X176575266Y-108652560D01*
X176699176Y-108437942D01*
X176794012Y-108208986D01*
X176858153Y-107969611D01*
X176890500Y-107723911D01*
X176890500Y-107476091D01*
X176858153Y-107230391D01*
X176794012Y-106991016D01*
X176699176Y-106762060D01*
X176699174Y-106762057D01*
X176699172Y-106762052D01*
X176575270Y-106547449D01*
X176575266Y-106547442D01*
X176424403Y-106350833D01*
X176424398Y-106350827D01*
X176249173Y-106175602D01*
X176249166Y-106175596D01*
X176052567Y-106024741D01*
X176052565Y-106024739D01*
X176052559Y-106024735D01*
X176052554Y-106024732D01*
X176052551Y-106024730D01*
X175837948Y-105900828D01*
X175837931Y-105900820D01*
X175608992Y-105805991D01*
X175369606Y-105741847D01*
X175123919Y-105709502D01*
X175123916Y-105709501D01*
X175123910Y-105709501D01*
X174876090Y-105709501D01*
X174876084Y-105709501D01*
X174876080Y-105709502D01*
X174630393Y-105741847D01*
X174391007Y-105805991D01*
X174162068Y-105900820D01*
X174162051Y-105900828D01*
X173947448Y-106024730D01*
X173947432Y-106024741D01*
X173750833Y-106175596D01*
X173750826Y-106175602D01*
X173575601Y-106350827D01*
X173575595Y-106350834D01*
X173424740Y-106547433D01*
X173424726Y-106547454D01*
X173407386Y-106577488D01*
X173356819Y-106625703D01*
X173288212Y-106638925D01*
X173223347Y-106612957D01*
X173192614Y-106577488D01*
X173175273Y-106547454D01*
X173175270Y-106547449D01*
X173175266Y-106547442D01*
X173024403Y-106350833D01*
X173024398Y-106350827D01*
X172849173Y-106175602D01*
X172849166Y-106175596D01*
X172652567Y-106024741D01*
X172652565Y-106024739D01*
X172652559Y-106024735D01*
X172652554Y-106024732D01*
X172652551Y-106024730D01*
X172437948Y-105900828D01*
X172437931Y-105900820D01*
X172208992Y-105805991D01*
X171969606Y-105741847D01*
X171723919Y-105709502D01*
X171723916Y-105709501D01*
X171723910Y-105709501D01*
X171476090Y-105709501D01*
X171476084Y-105709501D01*
X171476080Y-105709502D01*
X171230393Y-105741847D01*
X170991007Y-105805991D01*
X170762068Y-105900820D01*
X170762051Y-105900828D01*
X170547448Y-106024730D01*
X170547432Y-106024741D01*
X170350833Y-106175596D01*
X170350826Y-106175602D01*
X170175601Y-106350827D01*
X170175595Y-106350834D01*
X170024740Y-106547433D01*
X170024729Y-106547449D01*
X169900827Y-106762052D01*
X169900819Y-106762069D01*
X169805990Y-106991008D01*
X169741846Y-107230394D01*
X169709501Y-107476081D01*
X169709500Y-107476097D01*
X100500500Y-107476097D01*
X100500500Y-104873713D01*
X123149500Y-104873713D01*
X123149500Y-105086286D01*
X123182753Y-105296239D01*
X123248444Y-105498414D01*
X123344951Y-105687820D01*
X123469890Y-105859786D01*
X123620213Y-106010109D01*
X123792179Y-106135048D01*
X123792181Y-106135049D01*
X123792184Y-106135051D01*
X123981588Y-106231557D01*
X124183757Y-106297246D01*
X124393713Y-106330500D01*
X124393714Y-106330500D01*
X124606286Y-106330500D01*
X124606287Y-106330500D01*
X124816243Y-106297246D01*
X125018412Y-106231557D01*
X125207816Y-106135051D01*
X125379792Y-106010104D01*
X125493329Y-105896566D01*
X125554648Y-105863084D01*
X125624340Y-105868068D01*
X125680274Y-105909939D01*
X125697189Y-105940917D01*
X125746202Y-106072328D01*
X125746206Y-106072335D01*
X125832452Y-106187544D01*
X125832455Y-106187547D01*
X125947664Y-106273793D01*
X125947671Y-106273797D01*
X126082517Y-106324091D01*
X126082516Y-106324091D01*
X126089444Y-106324835D01*
X126142127Y-106330500D01*
X127937872Y-106330499D01*
X127997483Y-106324091D01*
X128132331Y-106273796D01*
X128247546Y-106187546D01*
X128333796Y-106072331D01*
X128384091Y-105937483D01*
X128390500Y-105877873D01*
X128390499Y-104082128D01*
X128384091Y-104022517D01*
X128382810Y-104019083D01*
X128333797Y-103887671D01*
X128333793Y-103887664D01*
X128247547Y-103772455D01*
X128247544Y-103772452D01*
X128132335Y-103686206D01*
X128132328Y-103686202D01*
X127997482Y-103635908D01*
X127997483Y-103635908D01*
X127937883Y-103629501D01*
X127937881Y-103629500D01*
X127937873Y-103629500D01*
X127937864Y-103629500D01*
X126142129Y-103629500D01*
X126142123Y-103629501D01*
X126082516Y-103635908D01*
X125947671Y-103686202D01*
X125947664Y-103686206D01*
X125832455Y-103772452D01*
X125832452Y-103772455D01*
X125746206Y-103887664D01*
X125746203Y-103887669D01*
X125697189Y-104019083D01*
X125655317Y-104075016D01*
X125589853Y-104099433D01*
X125521580Y-104084581D01*
X125493326Y-104063430D01*
X125379786Y-103949890D01*
X125207820Y-103824951D01*
X125018414Y-103728444D01*
X125018413Y-103728443D01*
X125018412Y-103728443D01*
X124816243Y-103662754D01*
X124816241Y-103662753D01*
X124816240Y-103662753D01*
X124654957Y-103637208D01*
X124606287Y-103629500D01*
X124393713Y-103629500D01*
X124345042Y-103637208D01*
X124183760Y-103662753D01*
X123981585Y-103728444D01*
X123792179Y-103824951D01*
X123620213Y-103949890D01*
X123469890Y-104100213D01*
X123344951Y-104272179D01*
X123248444Y-104461585D01*
X123182753Y-104663760D01*
X123149500Y-104873713D01*
X100500500Y-104873713D01*
X100500500Y-102276096D01*
X133109500Y-102276096D01*
X133109500Y-102523903D01*
X133109501Y-102523919D01*
X133141846Y-102769606D01*
X133205990Y-103008992D01*
X133300819Y-103237931D01*
X133300827Y-103237948D01*
X133424729Y-103452551D01*
X133424740Y-103452567D01*
X133575595Y-103649166D01*
X133575601Y-103649173D01*
X133750826Y-103824398D01*
X133750833Y-103824404D01*
X133833282Y-103887669D01*
X133947441Y-103975266D01*
X133947448Y-103975270D01*
X134162051Y-104099172D01*
X134162056Y-104099174D01*
X134162059Y-104099176D01*
X134162063Y-104099177D01*
X134162068Y-104099180D01*
X134391007Y-104194009D01*
X134391009Y-104194009D01*
X134391015Y-104194012D01*
X134630390Y-104258153D01*
X134876090Y-104290500D01*
X134876097Y-104290500D01*
X135123903Y-104290500D01*
X135123910Y-104290500D01*
X135369610Y-104258153D01*
X135608985Y-104194012D01*
X135837941Y-104099176D01*
X136052559Y-103975266D01*
X136249168Y-103824403D01*
X136424403Y-103649168D01*
X136575266Y-103452559D01*
X136592613Y-103422512D01*
X136643180Y-103374297D01*
X136711787Y-103361074D01*
X136776652Y-103387042D01*
X136807386Y-103422512D01*
X136824734Y-103452559D01*
X136824739Y-103452565D01*
X136824740Y-103452567D01*
X136975595Y-103649166D01*
X136975601Y-103649173D01*
X137150826Y-103824398D01*
X137150833Y-103824404D01*
X137233282Y-103887669D01*
X137347441Y-103975266D01*
X137347448Y-103975270D01*
X137562051Y-104099172D01*
X137562056Y-104099174D01*
X137562059Y-104099176D01*
X137562063Y-104099177D01*
X137562068Y-104099180D01*
X137791007Y-104194009D01*
X137791009Y-104194009D01*
X137791015Y-104194012D01*
X138030390Y-104258153D01*
X138276090Y-104290500D01*
X138276097Y-104290500D01*
X138523903Y-104290500D01*
X138523910Y-104290500D01*
X138769610Y-104258153D01*
X139008985Y-104194012D01*
X139182510Y-104122136D01*
X181609499Y-104122136D01*
X181609499Y-105917871D01*
X181609500Y-105917877D01*
X181615907Y-105977484D01*
X181666201Y-106112329D01*
X181666205Y-106112336D01*
X181752451Y-106227545D01*
X181752454Y-106227548D01*
X181867663Y-106313794D01*
X181867670Y-106313798D01*
X182002516Y-106364092D01*
X182002515Y-106364092D01*
X182009443Y-106364836D01*
X182062126Y-106370501D01*
X183857871Y-106370500D01*
X183917482Y-106364092D01*
X184052330Y-106313797D01*
X184167545Y-106227547D01*
X184253795Y-106112332D01*
X184302809Y-105980917D01*
X184344680Y-105924985D01*
X184410144Y-105900567D01*
X184478417Y-105915418D01*
X184506672Y-105936570D01*
X184620212Y-106050110D01*
X184792178Y-106175049D01*
X184792180Y-106175050D01*
X184792183Y-106175052D01*
X184981587Y-106271558D01*
X185183756Y-106337247D01*
X185393712Y-106370501D01*
X185393713Y-106370501D01*
X185606285Y-106370501D01*
X185606286Y-106370501D01*
X185816242Y-106337247D01*
X186018411Y-106271558D01*
X186207815Y-106175052D01*
X186294137Y-106112336D01*
X186379785Y-106050110D01*
X186379787Y-106050107D01*
X186379791Y-106050105D01*
X186530103Y-105899793D01*
X186530105Y-105899789D01*
X186530108Y-105899787D01*
X186655047Y-105727821D01*
X186655046Y-105727821D01*
X186655050Y-105727817D01*
X186751556Y-105538413D01*
X186817245Y-105336244D01*
X186850499Y-105126288D01*
X186850499Y-104913714D01*
X186817245Y-104703758D01*
X186751556Y-104501589D01*
X186655050Y-104312185D01*
X186655048Y-104312182D01*
X186655047Y-104312180D01*
X186530108Y-104140214D01*
X186379785Y-103989891D01*
X186207819Y-103864952D01*
X186018413Y-103768445D01*
X186018412Y-103768444D01*
X186018411Y-103768444D01*
X185816242Y-103702755D01*
X185816240Y-103702754D01*
X185816239Y-103702754D01*
X185654956Y-103677209D01*
X185606286Y-103669501D01*
X185393712Y-103669501D01*
X185345041Y-103677209D01*
X185183759Y-103702754D01*
X184981584Y-103768445D01*
X184792178Y-103864952D01*
X184620214Y-103989890D01*
X184506672Y-104103432D01*
X184445349Y-104136916D01*
X184375657Y-104131932D01*
X184319724Y-104090060D01*
X184302809Y-104059083D01*
X184253796Y-103927672D01*
X184253792Y-103927665D01*
X184167546Y-103812456D01*
X184167543Y-103812453D01*
X184052334Y-103726207D01*
X184052327Y-103726203D01*
X183917481Y-103675909D01*
X183917482Y-103675909D01*
X183857882Y-103669502D01*
X183857880Y-103669501D01*
X183857872Y-103669501D01*
X183857863Y-103669501D01*
X182062128Y-103669501D01*
X182062122Y-103669502D01*
X182002515Y-103675909D01*
X181867670Y-103726203D01*
X181867663Y-103726207D01*
X181752454Y-103812453D01*
X181752451Y-103812456D01*
X181666205Y-103927665D01*
X181666201Y-103927672D01*
X181615907Y-104062518D01*
X181609500Y-104122117D01*
X181609499Y-104122136D01*
X139182510Y-104122136D01*
X139237941Y-104099176D01*
X139299855Y-104063430D01*
X139389939Y-104011420D01*
X139427217Y-103989897D01*
X139452559Y-103975266D01*
X139649168Y-103824403D01*
X139824403Y-103649168D01*
X139975266Y-103452559D01*
X140099176Y-103237941D01*
X140194012Y-103008985D01*
X140258153Y-102769610D01*
X140290500Y-102523910D01*
X140290500Y-102276090D01*
X140258153Y-102030390D01*
X140194012Y-101791015D01*
X140099176Y-101562059D01*
X140099174Y-101562056D01*
X140099172Y-101562051D01*
X139975270Y-101347448D01*
X139975266Y-101347441D01*
X139824403Y-101150832D01*
X139824398Y-101150826D01*
X139649173Y-100975601D01*
X139649166Y-100975595D01*
X139452567Y-100824740D01*
X139452565Y-100824738D01*
X139452559Y-100824734D01*
X139452554Y-100824731D01*
X139452551Y-100824729D01*
X139237948Y-100700827D01*
X139237931Y-100700819D01*
X139008992Y-100605990D01*
X138769606Y-100541846D01*
X138523919Y-100509501D01*
X138523916Y-100509500D01*
X138523910Y-100509500D01*
X138276090Y-100509500D01*
X138276084Y-100509500D01*
X138276080Y-100509501D01*
X138030393Y-100541846D01*
X137791007Y-100605990D01*
X137562068Y-100700819D01*
X137562051Y-100700827D01*
X137347448Y-100824729D01*
X137347432Y-100824740D01*
X137150833Y-100975595D01*
X137150826Y-100975601D01*
X136975601Y-101150826D01*
X136975595Y-101150833D01*
X136824740Y-101347432D01*
X136824726Y-101347453D01*
X136807386Y-101377487D01*
X136756819Y-101425702D01*
X136688212Y-101438924D01*
X136623347Y-101412956D01*
X136592614Y-101377487D01*
X136575273Y-101347453D01*
X136575270Y-101347448D01*
X136575266Y-101347441D01*
X136424403Y-101150832D01*
X136424398Y-101150826D01*
X136249173Y-100975601D01*
X136249166Y-100975595D01*
X136052567Y-100824740D01*
X136052565Y-100824738D01*
X136052559Y-100824734D01*
X136052554Y-100824731D01*
X136052551Y-100824729D01*
X135837948Y-100700827D01*
X135837931Y-100700819D01*
X135608992Y-100605990D01*
X135369606Y-100541846D01*
X135123919Y-100509501D01*
X135123916Y-100509500D01*
X135123910Y-100509500D01*
X134876090Y-100509500D01*
X134876084Y-100509500D01*
X134876080Y-100509501D01*
X134630393Y-100541846D01*
X134391007Y-100605990D01*
X134162068Y-100700819D01*
X134162051Y-100700827D01*
X133947448Y-100824729D01*
X133947432Y-100824740D01*
X133750833Y-100975595D01*
X133750826Y-100975601D01*
X133575601Y-101150826D01*
X133575595Y-101150833D01*
X133424740Y-101347432D01*
X133424729Y-101347448D01*
X133300827Y-101562051D01*
X133300819Y-101562068D01*
X133205990Y-101791007D01*
X133141846Y-102030393D01*
X133109501Y-102276080D01*
X133109500Y-102276096D01*
X100500500Y-102276096D01*
X100500500Y-92356096D01*
X133109500Y-92356096D01*
X133109500Y-92603903D01*
X133109501Y-92603919D01*
X133141846Y-92849606D01*
X133205990Y-93088992D01*
X133300819Y-93317931D01*
X133300827Y-93317948D01*
X133424729Y-93532551D01*
X133424740Y-93532567D01*
X133575595Y-93729166D01*
X133575601Y-93729173D01*
X133750826Y-93904398D01*
X133750832Y-93904403D01*
X133947441Y-94055266D01*
X133947448Y-94055270D01*
X134162051Y-94179172D01*
X134162056Y-94179174D01*
X134162059Y-94179176D01*
X134162063Y-94179177D01*
X134162068Y-94179180D01*
X134391007Y-94274009D01*
X134391009Y-94274009D01*
X134391015Y-94274012D01*
X134630390Y-94338153D01*
X134876090Y-94370500D01*
X134876097Y-94370500D01*
X135123903Y-94370500D01*
X135123910Y-94370500D01*
X135369610Y-94338153D01*
X135608985Y-94274012D01*
X135837941Y-94179176D01*
X136052559Y-94055266D01*
X136249168Y-93904403D01*
X136424403Y-93729168D01*
X136575266Y-93532559D01*
X136592613Y-93502512D01*
X136643180Y-93454297D01*
X136711787Y-93441074D01*
X136776652Y-93467042D01*
X136807386Y-93502512D01*
X136824734Y-93532559D01*
X136824739Y-93532565D01*
X136824740Y-93532567D01*
X136975595Y-93729166D01*
X136975601Y-93729173D01*
X137150826Y-93904398D01*
X137150832Y-93904403D01*
X137347441Y-94055266D01*
X137347448Y-94055270D01*
X137562051Y-94179172D01*
X137562056Y-94179174D01*
X137562059Y-94179176D01*
X137562063Y-94179177D01*
X137562068Y-94179180D01*
X137791007Y-94274009D01*
X137791009Y-94274009D01*
X137791015Y-94274012D01*
X138030390Y-94338153D01*
X138276090Y-94370500D01*
X138276097Y-94370500D01*
X138523903Y-94370500D01*
X138523910Y-94370500D01*
X138769610Y-94338153D01*
X139008985Y-94274012D01*
X139237941Y-94179176D01*
X139452559Y-94055266D01*
X139649168Y-93904403D01*
X139824403Y-93729168D01*
X139975266Y-93532559D01*
X140099176Y-93317941D01*
X140194012Y-93088985D01*
X140258153Y-92849610D01*
X140290500Y-92603910D01*
X140290500Y-92356090D01*
X140258153Y-92110390D01*
X140194012Y-91871015D01*
X140099176Y-91642059D01*
X140099174Y-91642056D01*
X140099172Y-91642051D01*
X139975270Y-91427448D01*
X139975266Y-91427441D01*
X139824403Y-91230832D01*
X139824398Y-91230826D01*
X139649173Y-91055601D01*
X139649166Y-91055595D01*
X139452567Y-90904740D01*
X139452565Y-90904738D01*
X139452559Y-90904734D01*
X139452554Y-90904731D01*
X139452551Y-90904729D01*
X139237948Y-90780827D01*
X139237931Y-90780819D01*
X139008992Y-90685990D01*
X138769606Y-90621846D01*
X138523919Y-90589501D01*
X138523916Y-90589500D01*
X138523910Y-90589500D01*
X138276090Y-90589500D01*
X138276084Y-90589500D01*
X138276080Y-90589501D01*
X138030393Y-90621846D01*
X137791007Y-90685990D01*
X137562068Y-90780819D01*
X137562051Y-90780827D01*
X137347448Y-90904729D01*
X137347432Y-90904740D01*
X137150833Y-91055595D01*
X137150826Y-91055601D01*
X136975601Y-91230826D01*
X136975595Y-91230833D01*
X136824740Y-91427432D01*
X136824726Y-91427453D01*
X136807386Y-91457487D01*
X136756819Y-91505702D01*
X136688212Y-91518924D01*
X136623347Y-91492956D01*
X136592614Y-91457487D01*
X136575273Y-91427453D01*
X136575270Y-91427448D01*
X136575266Y-91427441D01*
X136424403Y-91230832D01*
X136424398Y-91230826D01*
X136249173Y-91055601D01*
X136249166Y-91055595D01*
X136052567Y-90904740D01*
X136052565Y-90904738D01*
X136052559Y-90904734D01*
X136052554Y-90904731D01*
X136052551Y-90904729D01*
X135837948Y-90780827D01*
X135837931Y-90780819D01*
X135608992Y-90685990D01*
X135369606Y-90621846D01*
X135123919Y-90589501D01*
X135123916Y-90589500D01*
X135123910Y-90589500D01*
X134876090Y-90589500D01*
X134876084Y-90589500D01*
X134876080Y-90589501D01*
X134630393Y-90621846D01*
X134391007Y-90685990D01*
X134162068Y-90780819D01*
X134162051Y-90780827D01*
X133947448Y-90904729D01*
X133947432Y-90904740D01*
X133750833Y-91055595D01*
X133750826Y-91055601D01*
X133575601Y-91230826D01*
X133575595Y-91230833D01*
X133424740Y-91427432D01*
X133424729Y-91427448D01*
X133300827Y-91642051D01*
X133300819Y-91642068D01*
X133205990Y-91871007D01*
X133141846Y-92110393D01*
X133109501Y-92356080D01*
X133109500Y-92356096D01*
X100500500Y-92356096D01*
X100500500Y-84876096D01*
X155709501Y-84876096D01*
X155709501Y-85123903D01*
X155709502Y-85123919D01*
X155741847Y-85369606D01*
X155805991Y-85608992D01*
X155900820Y-85837931D01*
X155900828Y-85837948D01*
X156024730Y-86052551D01*
X156024734Y-86052558D01*
X156024741Y-86052567D01*
X156175596Y-86249166D01*
X156175602Y-86249173D01*
X156350827Y-86424398D01*
X156350833Y-86424403D01*
X156547442Y-86575266D01*
X156547453Y-86575272D01*
X156547454Y-86575273D01*
X156577488Y-86592614D01*
X156625703Y-86643181D01*
X156638925Y-86711788D01*
X156612957Y-86776653D01*
X156577488Y-86807386D01*
X156547454Y-86824726D01*
X156547433Y-86824740D01*
X156350834Y-86975595D01*
X156350827Y-86975601D01*
X156175602Y-87150826D01*
X156175596Y-87150833D01*
X156024741Y-87347432D01*
X156024730Y-87347448D01*
X155900828Y-87562051D01*
X155900820Y-87562068D01*
X155805991Y-87791007D01*
X155741847Y-88030393D01*
X155709502Y-88276080D01*
X155709501Y-88276096D01*
X155709501Y-88523903D01*
X155709502Y-88523919D01*
X155741847Y-88769606D01*
X155805991Y-89008992D01*
X155900820Y-89237931D01*
X155900828Y-89237948D01*
X156024730Y-89452551D01*
X156024741Y-89452567D01*
X156175596Y-89649166D01*
X156175602Y-89649173D01*
X156350827Y-89824398D01*
X156350833Y-89824403D01*
X156547442Y-89975266D01*
X156547449Y-89975270D01*
X156762052Y-90099172D01*
X156762057Y-90099174D01*
X156762060Y-90099176D01*
X156762064Y-90099177D01*
X156762069Y-90099180D01*
X156991008Y-90194009D01*
X156991010Y-90194009D01*
X156991016Y-90194012D01*
X157230391Y-90258153D01*
X157476091Y-90290500D01*
X157476098Y-90290500D01*
X157723904Y-90290500D01*
X157723911Y-90290500D01*
X157969611Y-90258153D01*
X158208986Y-90194012D01*
X158437942Y-90099176D01*
X158652560Y-89975266D01*
X158849169Y-89824403D01*
X159024404Y-89649168D01*
X159175267Y-89452559D01*
X159299177Y-89237941D01*
X159394013Y-89008985D01*
X159458154Y-88769610D01*
X159490501Y-88523910D01*
X159490501Y-88276090D01*
X159458154Y-88030390D01*
X159394013Y-87791015D01*
X159299177Y-87562059D01*
X159299175Y-87562056D01*
X159299173Y-87562051D01*
X159175271Y-87347448D01*
X159175267Y-87347441D01*
X159024404Y-87150832D01*
X159024399Y-87150826D01*
X158849174Y-86975601D01*
X158849167Y-86975595D01*
X158652568Y-86824740D01*
X158652566Y-86824739D01*
X158652560Y-86824734D01*
X158622513Y-86807386D01*
X158574298Y-86756820D01*
X158561075Y-86688213D01*
X158587043Y-86623348D01*
X158622514Y-86592613D01*
X158652560Y-86575266D01*
X158849169Y-86424403D01*
X159024404Y-86249168D01*
X159175267Y-86052559D01*
X159299177Y-85837941D01*
X159394013Y-85608985D01*
X159458154Y-85369610D01*
X159490501Y-85123910D01*
X159490501Y-84876096D01*
X165629501Y-84876096D01*
X165629501Y-85123903D01*
X165629502Y-85123919D01*
X165661847Y-85369606D01*
X165725991Y-85608992D01*
X165820820Y-85837931D01*
X165820828Y-85837948D01*
X165944730Y-86052551D01*
X165944734Y-86052558D01*
X165944741Y-86052567D01*
X166095596Y-86249166D01*
X166095602Y-86249173D01*
X166270827Y-86424398D01*
X166270833Y-86424403D01*
X166467442Y-86575266D01*
X166467453Y-86575272D01*
X166467454Y-86575273D01*
X166497488Y-86592614D01*
X166545703Y-86643181D01*
X166558925Y-86711788D01*
X166532957Y-86776653D01*
X166497488Y-86807386D01*
X166467454Y-86824726D01*
X166467433Y-86824740D01*
X166270834Y-86975595D01*
X166270827Y-86975601D01*
X166095602Y-87150826D01*
X166095596Y-87150833D01*
X165944741Y-87347432D01*
X165944730Y-87347448D01*
X165820828Y-87562051D01*
X165820820Y-87562068D01*
X165725991Y-87791007D01*
X165661847Y-88030393D01*
X165629502Y-88276080D01*
X165629501Y-88276096D01*
X165629501Y-88523903D01*
X165629502Y-88523919D01*
X165661847Y-88769606D01*
X165725991Y-89008992D01*
X165820820Y-89237931D01*
X165820828Y-89237948D01*
X165944730Y-89452551D01*
X165944741Y-89452567D01*
X166095596Y-89649166D01*
X166095602Y-89649173D01*
X166270827Y-89824398D01*
X166270833Y-89824403D01*
X166467442Y-89975266D01*
X166467449Y-89975270D01*
X166682052Y-90099172D01*
X166682057Y-90099174D01*
X166682060Y-90099176D01*
X166682064Y-90099177D01*
X166682069Y-90099180D01*
X166911008Y-90194009D01*
X166911010Y-90194009D01*
X166911016Y-90194012D01*
X167150391Y-90258153D01*
X167396091Y-90290500D01*
X167396098Y-90290500D01*
X167643904Y-90290500D01*
X167643911Y-90290500D01*
X167889611Y-90258153D01*
X168128986Y-90194012D01*
X168357942Y-90099176D01*
X168572560Y-89975266D01*
X168769169Y-89824403D01*
X168944404Y-89649168D01*
X169095267Y-89452559D01*
X169219177Y-89237941D01*
X169314013Y-89008985D01*
X169378154Y-88769610D01*
X169410501Y-88523910D01*
X169410501Y-88276090D01*
X169378154Y-88030390D01*
X169314013Y-87791015D01*
X169219177Y-87562059D01*
X169219175Y-87562056D01*
X169219173Y-87562051D01*
X169095271Y-87347448D01*
X169095267Y-87347441D01*
X168944404Y-87150832D01*
X168944399Y-87150826D01*
X168769174Y-86975601D01*
X168769167Y-86975595D01*
X168572568Y-86824740D01*
X168572566Y-86824739D01*
X168572560Y-86824734D01*
X168542513Y-86807386D01*
X168494298Y-86756820D01*
X168481075Y-86688213D01*
X168507043Y-86623348D01*
X168542514Y-86592613D01*
X168572560Y-86575266D01*
X168769169Y-86424403D01*
X168944404Y-86249168D01*
X169095267Y-86052559D01*
X169148451Y-85960441D01*
X181110751Y-85960441D01*
X181110751Y-86209558D01*
X181110752Y-86209575D01*
X181139034Y-86424404D01*
X181143269Y-86456565D01*
X181193273Y-86643181D01*
X181207749Y-86697207D01*
X181303081Y-86927361D01*
X181303088Y-86927376D01*
X181427651Y-87143126D01*
X181579311Y-87340774D01*
X181579317Y-87340781D01*
X181755469Y-87516933D01*
X181755476Y-87516939D01*
X181953124Y-87668599D01*
X182168874Y-87793162D01*
X182168889Y-87793169D01*
X182268076Y-87834253D01*
X182399044Y-87888502D01*
X182639686Y-87952982D01*
X182886686Y-87985500D01*
X182886693Y-87985500D01*
X183135809Y-87985500D01*
X183135816Y-87985500D01*
X183382816Y-87952982D01*
X183623458Y-87888502D01*
X183853624Y-87793164D01*
X184069378Y-87668599D01*
X184267027Y-87516938D01*
X184443189Y-87340776D01*
X184594850Y-87143127D01*
X184719415Y-86927373D01*
X184814753Y-86697207D01*
X184879233Y-86456565D01*
X184911751Y-86209565D01*
X184911751Y-85960435D01*
X184879233Y-85713435D01*
X184814753Y-85472793D01*
X184719415Y-85242627D01*
X184594850Y-85026873D01*
X184479155Y-84876096D01*
X184443190Y-84829225D01*
X184443184Y-84829218D01*
X184267032Y-84653066D01*
X184267025Y-84653060D01*
X184069377Y-84501400D01*
X183853627Y-84376837D01*
X183853612Y-84376830D01*
X183623458Y-84281498D01*
X183382812Y-84217017D01*
X183135826Y-84184501D01*
X183135821Y-84184500D01*
X183135816Y-84184500D01*
X182886686Y-84184500D01*
X182886680Y-84184500D01*
X182886675Y-84184501D01*
X182639689Y-84217017D01*
X182399043Y-84281498D01*
X182168889Y-84376830D01*
X182168874Y-84376837D01*
X181953124Y-84501400D01*
X181755476Y-84653060D01*
X181755469Y-84653066D01*
X181579317Y-84829218D01*
X181579311Y-84829225D01*
X181427651Y-85026873D01*
X181303088Y-85242623D01*
X181303081Y-85242638D01*
X181207749Y-85472792D01*
X181143268Y-85713438D01*
X181110752Y-85960424D01*
X181110751Y-85960441D01*
X169148451Y-85960441D01*
X169219177Y-85837941D01*
X169314013Y-85608985D01*
X169378154Y-85369610D01*
X169410501Y-85123910D01*
X169410501Y-84876090D01*
X169378154Y-84630390D01*
X169314013Y-84391015D01*
X169308140Y-84376837D01*
X169219181Y-84162068D01*
X169219173Y-84162051D01*
X169095271Y-83947448D01*
X169095267Y-83947441D01*
X168944404Y-83750832D01*
X168944399Y-83750826D01*
X168769174Y-83575601D01*
X168769167Y-83575595D01*
X168572568Y-83424740D01*
X168572566Y-83424738D01*
X168572560Y-83424734D01*
X168572555Y-83424731D01*
X168572552Y-83424729D01*
X168357949Y-83300827D01*
X168357932Y-83300819D01*
X168128993Y-83205990D01*
X167889607Y-83141846D01*
X167643920Y-83109501D01*
X167643917Y-83109500D01*
X167643911Y-83109500D01*
X167396091Y-83109500D01*
X167396085Y-83109500D01*
X167396081Y-83109501D01*
X167150394Y-83141846D01*
X166911008Y-83205990D01*
X166682069Y-83300819D01*
X166682052Y-83300827D01*
X166467449Y-83424729D01*
X166467433Y-83424740D01*
X166270834Y-83575595D01*
X166270827Y-83575601D01*
X166095602Y-83750826D01*
X166095596Y-83750833D01*
X165944741Y-83947432D01*
X165944730Y-83947448D01*
X165820828Y-84162051D01*
X165820820Y-84162068D01*
X165725991Y-84391007D01*
X165661847Y-84630393D01*
X165629502Y-84876080D01*
X165629501Y-84876096D01*
X159490501Y-84876096D01*
X159490501Y-84876090D01*
X159458154Y-84630390D01*
X159394013Y-84391015D01*
X159388140Y-84376837D01*
X159299181Y-84162068D01*
X159299173Y-84162051D01*
X159175271Y-83947448D01*
X159175267Y-83947441D01*
X159024404Y-83750832D01*
X159024399Y-83750826D01*
X158849174Y-83575601D01*
X158849167Y-83575595D01*
X158652568Y-83424740D01*
X158652566Y-83424738D01*
X158652560Y-83424734D01*
X158652555Y-83424731D01*
X158652552Y-83424729D01*
X158437949Y-83300827D01*
X158437932Y-83300819D01*
X158208993Y-83205990D01*
X157969607Y-83141846D01*
X157723920Y-83109501D01*
X157723917Y-83109500D01*
X157723911Y-83109500D01*
X157476091Y-83109500D01*
X157476085Y-83109500D01*
X157476081Y-83109501D01*
X157230394Y-83141846D01*
X156991008Y-83205990D01*
X156762069Y-83300819D01*
X156762052Y-83300827D01*
X156547449Y-83424729D01*
X156547433Y-83424740D01*
X156350834Y-83575595D01*
X156350827Y-83575601D01*
X156175602Y-83750826D01*
X156175596Y-83750833D01*
X156024741Y-83947432D01*
X156024730Y-83947448D01*
X155900828Y-84162051D01*
X155900820Y-84162068D01*
X155805991Y-84391007D01*
X155741847Y-84630393D01*
X155709502Y-84876080D01*
X155709501Y-84876096D01*
X100500500Y-84876096D01*
X100500500Y-76864191D01*
X117014500Y-76864191D01*
X117014500Y-77113308D01*
X117014501Y-77113325D01*
X117047017Y-77360311D01*
X117111498Y-77600957D01*
X117206830Y-77831111D01*
X117206837Y-77831126D01*
X117331400Y-78046876D01*
X117483060Y-78244524D01*
X117483066Y-78244531D01*
X117659218Y-78420683D01*
X117659225Y-78420689D01*
X117856873Y-78572349D01*
X118072623Y-78696912D01*
X118072638Y-78696919D01*
X118161849Y-78733871D01*
X118302793Y-78792252D01*
X118543435Y-78856732D01*
X118790435Y-78889250D01*
X118790442Y-78889250D01*
X119039558Y-78889250D01*
X119039565Y-78889250D01*
X119286565Y-78856732D01*
X119527207Y-78792252D01*
X119757373Y-78696914D01*
X119973127Y-78572349D01*
X120170776Y-78420688D01*
X120346938Y-78244526D01*
X120498599Y-78046877D01*
X120623164Y-77831123D01*
X120718502Y-77600957D01*
X120782982Y-77360315D01*
X120815500Y-77113315D01*
X120815500Y-76872384D01*
X123024500Y-76872384D01*
X123024500Y-77105115D01*
X123024501Y-77105132D01*
X123025578Y-77113315D01*
X123054879Y-77335876D01*
X123061427Y-77360315D01*
X123115120Y-77560697D01*
X123204180Y-77775710D01*
X123204188Y-77775726D01*
X123320553Y-77977274D01*
X123320564Y-77977290D01*
X123462242Y-78161929D01*
X123462248Y-78161936D01*
X123626813Y-78326501D01*
X123626820Y-78326507D01*
X123749561Y-78420689D01*
X123811468Y-78468192D01*
X123811475Y-78468196D01*
X124013023Y-78584561D01*
X124013039Y-78584569D01*
X124228052Y-78673629D01*
X124228054Y-78673629D01*
X124228060Y-78673632D01*
X124452874Y-78733871D01*
X124683628Y-78764250D01*
X124683635Y-78764250D01*
X124916365Y-78764250D01*
X124916372Y-78764250D01*
X125147126Y-78733871D01*
X125371940Y-78673632D01*
X125429953Y-78649602D01*
X125586960Y-78584569D01*
X125586963Y-78584567D01*
X125586969Y-78584565D01*
X125788532Y-78468192D01*
X125973181Y-78326506D01*
X126137756Y-78161931D01*
X126279442Y-77977282D01*
X126395815Y-77775719D01*
X126484882Y-77560690D01*
X126545121Y-77335876D01*
X126575500Y-77105122D01*
X126575500Y-76872378D01*
X126574422Y-76864191D01*
X134184500Y-76864191D01*
X134184500Y-77113308D01*
X134184501Y-77113325D01*
X134217017Y-77360311D01*
X134281498Y-77600957D01*
X134376830Y-77831111D01*
X134376837Y-77831126D01*
X134501400Y-78046876D01*
X134653060Y-78244524D01*
X134653066Y-78244531D01*
X134829218Y-78420683D01*
X134829225Y-78420689D01*
X135026873Y-78572349D01*
X135242623Y-78696912D01*
X135242638Y-78696919D01*
X135331849Y-78733871D01*
X135472793Y-78792252D01*
X135713435Y-78856732D01*
X135960435Y-78889250D01*
X135960442Y-78889250D01*
X136209558Y-78889250D01*
X136209565Y-78889250D01*
X136456565Y-78856732D01*
X136697207Y-78792252D01*
X136927373Y-78696914D01*
X137143127Y-78572349D01*
X137340776Y-78420688D01*
X137516938Y-78244526D01*
X137668599Y-78046877D01*
X137793164Y-77831123D01*
X137888502Y-77600957D01*
X137952982Y-77360315D01*
X137985500Y-77113315D01*
X137985500Y-76864185D01*
X137952982Y-76617185D01*
X137888502Y-76376543D01*
X137834253Y-76245575D01*
X137793169Y-76146388D01*
X137793162Y-76146373D01*
X137668599Y-75930623D01*
X137516939Y-75732975D01*
X137516933Y-75732968D01*
X137340781Y-75556816D01*
X137340774Y-75556810D01*
X137143126Y-75405150D01*
X136927376Y-75280587D01*
X136927361Y-75280580D01*
X136697207Y-75185248D01*
X136456561Y-75120767D01*
X136209575Y-75088251D01*
X136209570Y-75088250D01*
X136209565Y-75088250D01*
X135960435Y-75088250D01*
X135960429Y-75088250D01*
X135960424Y-75088251D01*
X135713438Y-75120767D01*
X135472792Y-75185248D01*
X135242638Y-75280580D01*
X135242623Y-75280587D01*
X135026873Y-75405150D01*
X134829225Y-75556810D01*
X134829218Y-75556816D01*
X134653066Y-75732968D01*
X134653060Y-75732975D01*
X134501400Y-75930623D01*
X134376837Y-76146373D01*
X134376830Y-76146388D01*
X134281498Y-76376542D01*
X134217017Y-76617188D01*
X134184501Y-76864174D01*
X134184500Y-76864191D01*
X126574422Y-76864191D01*
X126545121Y-76641624D01*
X126484882Y-76416810D01*
X126484879Y-76416802D01*
X126395819Y-76201789D01*
X126395811Y-76201773D01*
X126279446Y-76000225D01*
X126279442Y-76000218D01*
X126137756Y-75815569D01*
X126137751Y-75815563D01*
X125973186Y-75650998D01*
X125973179Y-75650992D01*
X125788540Y-75509314D01*
X125788538Y-75509312D01*
X125788532Y-75509308D01*
X125788527Y-75509305D01*
X125788524Y-75509303D01*
X125586976Y-75392938D01*
X125586960Y-75392930D01*
X125371947Y-75303870D01*
X125285054Y-75280587D01*
X125147126Y-75243629D01*
X125147125Y-75243628D01*
X125147122Y-75243628D01*
X124916382Y-75213251D01*
X124916377Y-75213250D01*
X124916372Y-75213250D01*
X124683628Y-75213250D01*
X124683622Y-75213250D01*
X124683617Y-75213251D01*
X124452877Y-75243628D01*
X124228052Y-75303870D01*
X124013039Y-75392930D01*
X124013023Y-75392938D01*
X123811475Y-75509303D01*
X123811459Y-75509314D01*
X123626820Y-75650992D01*
X123626813Y-75650998D01*
X123462248Y-75815563D01*
X123462242Y-75815570D01*
X123320564Y-76000209D01*
X123320553Y-76000225D01*
X123204188Y-76201773D01*
X123204180Y-76201789D01*
X123115120Y-76416802D01*
X123054878Y-76641627D01*
X123024501Y-76872367D01*
X123024500Y-76872384D01*
X120815500Y-76872384D01*
X120815500Y-76864185D01*
X120782982Y-76617185D01*
X120718502Y-76376543D01*
X120664253Y-76245575D01*
X120623169Y-76146388D01*
X120623162Y-76146373D01*
X120498599Y-75930623D01*
X120346939Y-75732975D01*
X120346933Y-75732968D01*
X120170781Y-75556816D01*
X120170774Y-75556810D01*
X119973126Y-75405150D01*
X119757376Y-75280587D01*
X119757361Y-75280580D01*
X119527207Y-75185248D01*
X119286561Y-75120767D01*
X119039575Y-75088251D01*
X119039570Y-75088250D01*
X119039565Y-75088250D01*
X118790435Y-75088250D01*
X118790429Y-75088250D01*
X118790424Y-75088251D01*
X118543438Y-75120767D01*
X118302792Y-75185248D01*
X118072638Y-75280580D01*
X118072623Y-75280587D01*
X117856873Y-75405150D01*
X117659225Y-75556810D01*
X117659218Y-75556816D01*
X117483066Y-75732968D01*
X117483060Y-75732975D01*
X117331400Y-75930623D01*
X117206837Y-76146373D01*
X117206830Y-76146388D01*
X117111498Y-76376542D01*
X117047017Y-76617188D01*
X117014501Y-76864174D01*
X117014500Y-76864191D01*
X100500500Y-76864191D01*
X100500500Y-74393714D01*
X153669501Y-74393714D01*
X153669501Y-74606288D01*
X153702755Y-74816244D01*
X153735286Y-74916365D01*
X153768445Y-75018415D01*
X153864952Y-75207821D01*
X153989891Y-75379787D01*
X154103431Y-75493327D01*
X154136916Y-75554650D01*
X154131932Y-75624342D01*
X154090060Y-75680275D01*
X154059084Y-75697190D01*
X153927670Y-75746204D01*
X153927665Y-75746207D01*
X153812456Y-75832453D01*
X153812453Y-75832456D01*
X153726207Y-75947665D01*
X153726203Y-75947672D01*
X153675909Y-76082518D01*
X153669971Y-76137756D01*
X153669502Y-76142124D01*
X153669501Y-76142136D01*
X153669501Y-77937871D01*
X153669502Y-77937877D01*
X153675909Y-77997484D01*
X153726203Y-78132329D01*
X153726207Y-78132336D01*
X153812453Y-78247545D01*
X153812456Y-78247548D01*
X153927665Y-78333794D01*
X153927672Y-78333798D01*
X154062518Y-78384092D01*
X154062517Y-78384092D01*
X154069445Y-78384836D01*
X154122128Y-78390501D01*
X155917873Y-78390500D01*
X155977484Y-78384092D01*
X156112332Y-78333797D01*
X156227547Y-78247547D01*
X156313797Y-78132332D01*
X156364092Y-77997484D01*
X156370501Y-77937874D01*
X156370500Y-76142129D01*
X156364092Y-76082518D01*
X156323311Y-75973179D01*
X156313798Y-75947672D01*
X156313794Y-75947665D01*
X156227548Y-75832456D01*
X156227545Y-75832453D01*
X156112336Y-75746207D01*
X156112329Y-75746203D01*
X155980918Y-75697190D01*
X155924984Y-75655319D01*
X155900567Y-75589854D01*
X155915419Y-75521581D01*
X155936564Y-75493333D01*
X156050105Y-75379793D01*
X156055806Y-75371947D01*
X156175049Y-75207821D01*
X156175048Y-75207821D01*
X156175052Y-75207817D01*
X156271558Y-75018413D01*
X156337247Y-74816244D01*
X156358251Y-74683634D01*
X181235751Y-74683634D01*
X181235751Y-74916365D01*
X181235752Y-74916382D01*
X181266129Y-75147122D01*
X181326371Y-75371947D01*
X181415431Y-75586960D01*
X181415439Y-75586976D01*
X181531804Y-75788524D01*
X181531815Y-75788540D01*
X181673493Y-75973179D01*
X181673499Y-75973186D01*
X181838064Y-76137751D01*
X181838071Y-76137757D01*
X181969554Y-76238647D01*
X182022719Y-76279442D01*
X182022726Y-76279446D01*
X182224274Y-76395811D01*
X182224290Y-76395819D01*
X182439303Y-76484879D01*
X182439305Y-76484879D01*
X182439311Y-76484882D01*
X182664125Y-76545121D01*
X182894879Y-76575500D01*
X182894886Y-76575500D01*
X183127616Y-76575500D01*
X183127623Y-76575500D01*
X183358377Y-76545121D01*
X183583191Y-76484882D01*
X183641204Y-76460852D01*
X183798211Y-76395819D01*
X183798214Y-76395817D01*
X183798220Y-76395815D01*
X183999783Y-76279442D01*
X184184432Y-76137756D01*
X184349007Y-75973181D01*
X184490693Y-75788532D01*
X184607066Y-75586969D01*
X184619558Y-75556812D01*
X184692883Y-75379787D01*
X184696133Y-75371940D01*
X184756372Y-75147126D01*
X184786751Y-74916372D01*
X184786751Y-74683628D01*
X184756372Y-74452874D01*
X184696133Y-74228060D01*
X184677783Y-74183758D01*
X184607070Y-74013039D01*
X184607062Y-74013023D01*
X184490697Y-73811475D01*
X184490693Y-73811468D01*
X184349007Y-73626819D01*
X184349002Y-73626813D01*
X184184437Y-73462248D01*
X184184430Y-73462242D01*
X183999791Y-73320564D01*
X183999789Y-73320562D01*
X183999783Y-73320558D01*
X183999778Y-73320555D01*
X183999775Y-73320553D01*
X183798227Y-73204188D01*
X183798211Y-73204180D01*
X183583198Y-73115120D01*
X183358373Y-73054878D01*
X183127633Y-73024501D01*
X183127628Y-73024500D01*
X183127623Y-73024500D01*
X182894879Y-73024500D01*
X182894873Y-73024500D01*
X182894868Y-73024501D01*
X182664128Y-73054878D01*
X182439303Y-73115120D01*
X182224290Y-73204180D01*
X182224274Y-73204188D01*
X182022726Y-73320553D01*
X182022710Y-73320564D01*
X181838071Y-73462242D01*
X181838064Y-73462248D01*
X181673499Y-73626813D01*
X181673493Y-73626820D01*
X181531815Y-73811459D01*
X181531804Y-73811475D01*
X181415439Y-74013023D01*
X181415431Y-74013039D01*
X181326371Y-74228052D01*
X181266129Y-74452877D01*
X181235752Y-74683617D01*
X181235751Y-74683634D01*
X156358251Y-74683634D01*
X156361967Y-74660171D01*
X156361967Y-74660170D01*
X156370501Y-74606288D01*
X156370501Y-74393714D01*
X156337247Y-74183758D01*
X156271558Y-73981589D01*
X156175052Y-73792185D01*
X156175050Y-73792182D01*
X156175049Y-73792180D01*
X156050110Y-73620214D01*
X155899787Y-73469891D01*
X155727821Y-73344952D01*
X155538415Y-73248445D01*
X155538414Y-73248444D01*
X155538413Y-73248444D01*
X155336244Y-73182755D01*
X155336242Y-73182754D01*
X155336241Y-73182754D01*
X155174958Y-73157209D01*
X155126288Y-73149501D01*
X154913714Y-73149501D01*
X154865043Y-73157209D01*
X154703761Y-73182754D01*
X154501586Y-73248445D01*
X154312180Y-73344952D01*
X154140214Y-73469891D01*
X153989891Y-73620214D01*
X153864952Y-73792180D01*
X153768445Y-73981586D01*
X153702754Y-74183761D01*
X153695739Y-74228052D01*
X153669501Y-74393714D01*
X100500500Y-74393714D01*
X100500500Y-68790441D01*
X181110751Y-68790441D01*
X181110751Y-69039558D01*
X181110752Y-69039575D01*
X181143268Y-69286561D01*
X181207749Y-69527207D01*
X181303081Y-69757361D01*
X181303088Y-69757376D01*
X181427651Y-69973126D01*
X181579311Y-70170774D01*
X181579317Y-70170781D01*
X181755469Y-70346933D01*
X181755476Y-70346939D01*
X181953124Y-70498599D01*
X182168874Y-70623162D01*
X182168889Y-70623169D01*
X182268076Y-70664253D01*
X182399044Y-70718502D01*
X182639686Y-70782982D01*
X182886686Y-70815500D01*
X182886693Y-70815500D01*
X183135809Y-70815500D01*
X183135816Y-70815500D01*
X183382816Y-70782982D01*
X183623458Y-70718502D01*
X183853624Y-70623164D01*
X184069378Y-70498599D01*
X184267027Y-70346938D01*
X184443189Y-70170776D01*
X184594850Y-69973127D01*
X184719415Y-69757373D01*
X184814753Y-69527207D01*
X184879233Y-69286565D01*
X184911751Y-69039565D01*
X184911751Y-68790435D01*
X184879233Y-68543435D01*
X184814753Y-68302793D01*
X184719415Y-68072627D01*
X184594850Y-67856873D01*
X184443189Y-67659224D01*
X184443184Y-67659218D01*
X184267032Y-67483066D01*
X184267025Y-67483060D01*
X184069377Y-67331400D01*
X183853627Y-67206837D01*
X183853612Y-67206830D01*
X183623458Y-67111498D01*
X183382812Y-67047017D01*
X183135826Y-67014501D01*
X183135821Y-67014500D01*
X183135816Y-67014500D01*
X182886686Y-67014500D01*
X182886680Y-67014500D01*
X182886675Y-67014501D01*
X182639689Y-67047017D01*
X182399043Y-67111498D01*
X182168889Y-67206830D01*
X182168874Y-67206837D01*
X181953124Y-67331400D01*
X181755476Y-67483060D01*
X181755469Y-67483066D01*
X181579317Y-67659218D01*
X181579311Y-67659225D01*
X181427651Y-67856873D01*
X181303088Y-68072623D01*
X181303081Y-68072638D01*
X181207749Y-68302792D01*
X181143268Y-68543438D01*
X181110752Y-68790424D01*
X181110751Y-68790441D01*
X100500500Y-68790441D01*
X100500500Y-64124000D01*
X100520185Y-64056961D01*
X100572989Y-64011206D01*
X100624500Y-64000000D01*
X114000000Y-64000000D01*
X114000000Y-50624500D01*
X114019685Y-50557461D01*
X114072489Y-50511706D01*
X114124000Y-50500500D01*
X195876000Y-50500500D01*
X195943039Y-50520185D01*
G37*
%TD.AperFunction*%
%TD*%
M02*
