M48
; DRILL file {KiCad 9.0.5} date 2025-11-08T17:52:59-0800
; FORMAT={-:-/ absolute / metric / decimal}
; #@! TF.CreationDate,2025-11-08T17:52:59-08:00
; #@! TF.GenerationSoftware,Kicad,Pcbnew,9.0.5
; #@! TF.FileFunction,Plated,1,2,PTH
FMAT,2
METRIC
; #@! TA.AperFunction,Plated,PTH,ViaDrill
T1C0.300
; #@! TA.AperFunction,Plated,PTH,ComponentDrill
T2C1.000
; #@! TA.AperFunction,Plated,PTH,ComponentDrill
T3C1.700
; #@! TA.AperFunction,Plated,PTH,ComponentDrill
T4C1.780
%
G90
G05
T1
X120.585Y-99.526
X160.474Y-70.585
X189.415Y-110.474
T2
X121.96Y-104.98
X124.5Y-104.98
X127.04Y-104.98
X155.02Y-71.96
X155.02Y-74.5
X155.02Y-77.04
X182.96Y-105.02
X185.5Y-105.02
X188.04Y-105.02
T3
X124.8Y-76.989
X127.0Y-129.715
X127.0Y-135.115
X130.2Y-76.989
X179.8Y-133.011
X183.011Y-74.8
X183.011Y-80.2
X185.2Y-133.011
T4
X135.0Y-92.48
X135.0Y-102.4
X138.4Y-92.48
X138.4Y-102.4
X157.6Y-85.0
X157.6Y-88.4
X167.52Y-85.0
X167.52Y-88.4
X171.6Y-107.6
X171.6Y-117.52
X175.0Y-107.6
X175.0Y-117.52
M30
